<svg width="92" height="92" viewBox="0 0 92 92" fill="none" xmlns="http://www.w3.org/2000/svg">
<rect width="91.5618" height="91.5618" fill="#111111"/>
<path d="M41.3772 45.2726C41.3772 45.2726 45.7104 44.9431 45.7104 39.7535C45.7104 34.5683 42.7715 32.0122 38.2794 32.0122L22.8906 31.9879V60.6435H38.6373C38.6373 60.6435 46.5106 60.8928 46.5106 52.0468C46.5106 52.0468 47.0889 45.2726 41.3772 45.2726ZM28.6167 36.2862H36.49C36.49 36.2862 39.1841 36.3306 39.1841 39.8266C39.1841 43.4501 36.49 43.4501 36.49 43.4501H28.6167V36.2862ZM37.2057 56.3452H28.6167V47.7485H37.2057C37.2057 47.7485 41.5003 47.7929 41.5003 52.0468C41.5003 56.3008 37.8242 56.3452 37.2057 56.3452Z" fill="white"/>
<path d="M58.6788 39.1524C47.9238 39.1524 47.9424 49.8983 47.9424 49.8983C47.9424 49.8983 47.2267 60.6442 58.6788 60.6442C58.6788 60.6442 68.6993 60.6442 68.6993 52.0475H62.9733C62.9733 52.0475 62.9733 56.3458 58.6788 56.3458C58.6788 56.3458 54.3842 56.3458 54.3842 50.6147C54.3842 50.6147 65.8363 50.6147 68.6993 50.6147C68.6993 47.7491 68.6993 39.1524 58.6788 39.1524ZM54.3842 47.7491C54.3842 47.7491 54.2898 43.4508 58.6788 43.4508C63.0663 43.4508 62.9733 47.7491 62.9733 47.7491H54.3842Z" fill="white"/>
<path d="M64.4052 34.8537H52.9531V37.7193H64.4052V34.8537Z" fill="white"/>
</svg>
