<svg width="263" height="47" viewBox="0 0 263 47" fill="none" xmlns="http://www.w3.org/2000/svg">
<path d="M0 47V7.68986H5.10433L5.53417 10.674H5.74909C6.85951 9.67928 8.0953 8.81847 9.45645 8.09157C10.8534 7.36467 12.2683 7.00122 13.7011 7.00122C16.9965 7.00122 19.5398 8.30199 21.3307 10.9035C23.1576 13.5051 24.071 16.9866 24.071 21.348C24.071 24.5617 23.5337 27.3162 22.4591 29.6117C21.3845 31.8689 19.9875 33.5906 18.2681 34.7766C16.5846 35.9626 14.7578 36.5556 12.7877 36.5556C11.6415 36.5556 10.4952 36.2878 9.34899 35.7521C8.20275 35.1783 7.09234 34.4131 6.01774 33.4566L6.17893 38.1624V47H0ZM11.4982 31.1038C13.2534 31.1038 14.722 30.2812 15.904 28.6361C17.0861 26.991 17.6771 24.5808 17.6771 21.4054C17.6771 18.5743 17.2294 16.3744 16.3339 14.8059C15.4384 13.2373 13.9877 12.453 11.9818 12.453C10.1191 12.453 8.18485 13.5051 6.17893 15.6093V28.7509C7.14607 29.5926 8.07739 30.2047 8.97288 30.5873C9.86838 30.9316 10.7101 31.1038 11.4982 31.1038Z" fill="#030303"/>
<path d="M36.0922 36.5556C33.7997 36.5556 31.9192 35.7904 30.4505 34.2601C29.0177 32.7298 28.3014 30.7403 28.3014 28.2918C28.3014 25.2694 29.5371 22.9357 32.0087 21.2906C34.4803 19.6072 38.4205 18.4595 43.8293 17.8474C43.7935 16.3553 43.4173 15.0737 42.701 14.0024C42.0204 12.893 40.7846 12.3382 38.9936 12.3382C37.7041 12.3382 36.4325 12.606 35.1788 13.1416C33.9609 13.6772 32.7609 14.3276 31.5789 15.0928L29.3222 10.674C30.7908 9.67928 32.4385 8.81847 34.2654 8.09157C36.128 7.36467 38.0981 7.00122 40.1756 7.00122C43.4711 7.00122 45.9247 8.05332 47.5366 10.1575C49.1844 12.2234 50.0082 15.2267 50.0082 19.1673V35.8669H44.9039L44.474 32.768H44.2591C43.0771 33.8392 41.8055 34.7383 40.4443 35.4652C39.119 36.1921 37.6683 36.5556 36.0922 36.5556ZM38.0802 31.3907C39.1548 31.3907 40.1219 31.1229 40.9816 30.5873C41.8771 30.0134 42.8263 29.2483 43.8293 28.2918V21.9792C40.2473 22.4766 37.7578 23.2226 36.3608 24.2173C34.9639 25.1738 34.2654 26.3598 34.2654 27.7753C34.2654 29.0378 34.6236 29.956 35.34 30.5299C36.0564 31.1038 36.9698 31.3907 38.0802 31.3907Z" fill="#030303"/>
<path d="M65.8585 36.5556C62.8138 36.5556 60.6467 35.6182 59.3572 33.7436C58.1035 31.8307 57.4767 29.363 57.4767 26.3407V12.9121H53.7156V7.9768L57.799 7.68986L58.5513 0H63.7093V7.68986H70.4256V12.9121H63.7093V26.3407C63.7093 29.6308 64.9451 31.2759 67.4167 31.2759C67.8823 31.2759 68.3659 31.2186 68.8674 31.1038C69.3689 30.9508 69.7987 30.7977 70.1569 30.6447L71.2315 35.5226C70.5151 35.7904 69.6912 36.0199 68.7599 36.2112C67.8644 36.4408 66.8973 36.5556 65.8585 36.5556Z" fill="#030303"/>
<path d="M84.2232 36.5556C81.1785 36.5556 79.0114 35.6182 77.7219 33.7436C76.4682 31.8307 75.8413 29.363 75.8413 26.3407V12.9121H72.0803V7.9768L76.1637 7.68986L76.9159 0H82.074V7.68986H88.7902V12.9121H82.074V26.3407C82.074 29.6308 83.3098 31.2759 85.7814 31.2759C86.247 31.2759 86.7306 31.2186 87.2321 31.1038C87.7336 30.9508 88.1634 30.7977 88.5216 30.6447L89.5962 35.5226C88.8798 35.7904 88.0559 36.0199 87.1246 36.2112C86.2291 36.4408 85.262 36.5556 84.2232 36.5556Z" fill="#030303"/>
<path d="M99.5816 36.5556C97.2891 36.5556 95.4085 35.7904 93.9399 34.2601C92.5071 32.7298 91.7907 30.7403 91.7907 28.2918C91.7907 25.2694 93.0265 22.9357 95.4981 21.2906C97.9697 19.6072 101.91 18.4595 107.319 17.8474C107.283 16.3553 106.907 15.0737 106.19 14.0024C105.51 12.893 104.274 12.3382 102.483 12.3382C101.193 12.3382 99.9218 12.606 98.6681 13.1416C97.4503 13.6772 96.2503 14.3276 95.0682 15.0928L92.8116 10.674C94.2802 9.67928 95.9279 8.81847 97.7547 8.09157C99.6174 7.36467 101.587 7.00122 103.665 7.00122C106.96 7.00122 109.414 8.05332 111.026 10.1575C112.674 12.2234 113.498 15.2267 113.498 19.1673V35.8669H108.393L107.963 32.768H107.748C106.566 33.8392 105.295 34.7383 103.934 35.4652C102.608 36.1921 101.158 36.5556 99.5816 36.5556ZM101.57 31.3907C102.644 31.3907 103.611 31.1229 104.471 30.5873C105.366 30.0134 106.316 29.2483 107.319 28.2918V21.9792C103.737 22.4766 101.247 23.2226 99.8502 24.2173C98.4532 25.1738 97.7547 26.3598 97.7547 27.7753C97.7547 29.0378 98.1129 29.956 98.8293 30.5299C99.5457 31.1038 100.459 31.3907 101.57 31.3907Z" fill="#030303"/>
<path d="M120.892 35.8669V7.68986H125.996L126.426 11.5348H126.641C127.752 10.2723 128.952 9.20106 130.241 8.32112C131.566 7.44119 133.053 7.00122 134.701 7.00122C136.635 7.00122 138.175 7.46032 139.321 8.37851C140.504 9.25844 141.399 10.4827 142.008 12.0513C143.262 10.5975 144.569 9.39235 145.93 8.4359C147.327 7.47945 148.85 7.00122 150.497 7.00122C153.291 7.00122 155.351 7.9768 156.676 9.92796C158.002 11.8791 158.664 14.6337 158.664 18.1917V35.8669H152.432V19.0525C152.432 16.7188 152.091 15.0737 151.411 14.1172C150.766 13.1608 149.763 12.6825 148.402 12.6825C146.754 12.6825 144.909 13.8494 142.868 16.1831V35.8669H136.689V19.0525C136.689 16.7188 136.348 15.0737 135.668 14.1172C135.023 13.1608 134.002 12.6825 132.605 12.6825C130.958 12.6825 129.113 13.8494 127.071 16.1831V35.8669H120.892Z" fill="#030303"/>
<path d="M176.974 36.5556C174.789 36.5556 172.747 35.9817 170.849 34.8339C168.95 33.6479 167.41 31.9646 166.228 29.7839C165.046 27.5649 164.455 24.906 164.455 21.8071C164.455 18.6699 165.046 16.011 166.228 13.8303C167.41 11.6113 168.95 9.92796 170.849 8.78022C172.747 7.59422 174.789 7.00122 176.974 7.00122C179.195 7.00122 181.254 7.59422 183.153 8.78022C185.051 9.92796 186.592 11.6113 187.774 13.8303C188.956 16.011 189.547 18.6699 189.547 21.8071C189.547 24.906 188.956 27.5649 187.774 29.7839C186.592 31.9646 185.051 33.6479 183.153 34.8339C181.254 35.9817 179.195 36.5556 176.974 36.5556ZM176.974 31.1612C178.908 31.1612 180.431 30.3004 181.541 28.5788C182.651 26.8571 183.207 24.5999 183.207 21.8071C183.207 18.976 182.651 16.6996 181.541 14.978C180.431 13.2564 178.908 12.3956 176.974 12.3956C175.04 12.3956 173.517 13.2564 172.407 14.978C171.332 16.6996 170.795 18.976 170.795 21.8071C170.795 24.5999 171.332 26.8571 172.407 28.5788C173.517 30.3004 175.04 31.1612 176.974 31.1612Z" fill="#030303"/>
<path d="M195.663 35.8669V7.68986H200.767L201.197 11.4774H201.412C202.594 10.2532 203.883 9.20106 205.28 8.32112C206.677 7.44119 208.271 7.00122 210.062 7.00122C212.892 7.00122 214.952 7.9768 216.241 9.92796C217.531 11.8791 218.175 14.6337 218.175 18.1917V35.8669H211.997V19.0525C211.997 16.7188 211.674 15.0737 211.029 14.1172C210.385 13.1608 209.328 12.6825 207.859 12.6825C206.713 12.6825 205.692 12.9886 204.797 13.6007C203.937 14.1746 202.952 15.0354 201.842 16.1831V35.8669H195.663Z" fill="#030303"/>
<path d="M225.728 47V7.68986H230.833L231.262 10.674H231.477C232.588 9.67928 233.824 8.81847 235.185 8.09157C236.582 7.36467 237.997 7.00122 239.429 7.00122C242.725 7.00122 245.268 8.30199 247.059 10.9035C248.886 13.5051 249.799 16.9866 249.799 21.348C249.799 24.5617 249.262 27.3162 248.187 29.6117C247.113 31.8689 245.716 33.5906 243.996 34.7766C242.313 35.9626 240.486 36.5556 238.516 36.5556C237.37 36.5556 236.224 36.2878 235.077 35.7521C233.931 35.1783 232.821 34.4131 231.746 33.4566L231.907 38.1624V47H225.728ZM237.226 31.1038C238.982 31.1038 240.45 30.2812 241.632 28.6361C242.814 26.991 243.405 24.5808 243.405 21.4054C243.405 18.5743 242.958 16.3744 242.062 14.8059C241.167 13.2373 239.716 12.453 237.71 12.453C235.847 12.453 233.913 13.5051 231.907 15.6093V28.7509C232.874 29.5926 233.806 30.2047 234.701 30.5873C235.597 30.9316 236.438 31.1038 237.226 31.1038Z" fill="#030303"/>
<path d="M259.024 36.5556C257.914 36.5556 256.964 36.1347 256.176 35.293C255.388 34.4514 254.994 33.3801 254.994 32.0794C254.994 30.7786 255.388 29.7074 256.176 28.8657C256.964 28.024 257.914 27.6032 259.024 27.6032C260.17 27.6032 261.119 28.024 261.872 28.8657C262.624 29.7074 263 30.7786 263 32.0794C263 33.3801 262.624 34.4514 261.872 35.293C261.119 36.1347 260.17 36.5556 259.024 36.5556Z" fill="#030303"/>
</svg>
